<svg xmlns="http://www.w3.org/2000/svg" width="512" height="512" viewBox="0 0 512 512">
  <defs>
    <linearGradient id="bg" x1="0%" y1="0%" x2="100%" y2="100%">
      <stop offset="0%" style="stop-color:#2d1117"/>
      <stop offset="100%" style="stop-color:#1a0a0a"/>
    </linearGradient>
    <linearGradient id="accent" x1="0%" y1="0%" x2="100%" y2="100%">
      <stop offset="0%" style="stop-color:#d4a04a"/>
      <stop offset="100%" style="stop-color:#c9873a"/>
    </linearGradient>
  </defs>
  <rect width="512" height="512" rx="80" fill="url(#bg)"/>
  <g transform="translate(256,256)" fill="none" stroke="url(#accent)" stroke-width="16" stroke-linecap="round" stroke-linejoin="round">
    <path d="M-80,-100 L-80,100 C-80,100 -40,80 0,100 C40,80 80,100 80,100 L80,-100 C80,-100 40,-80 0,-100 C-40,-80 -80,-100 -80,-100 Z" fill="rgba(201,135,58,0.15)"/>
    <path d="M0,-100 L0,100"/>
    <path d="M-50,-60 L-15,-60" stroke-width="10"/>
    <path d="M-50,-35 L-15,-35" stroke-width="10"/>
    <path d="M-50,-10 L-15,-10" stroke-width="10"/>
    <path d="M15,-60 L50,-60" stroke-width="10"/>
    <path d="M15,-35 L50,-35" stroke-width="10"/>
    <path d="M15,-10 L50,-10" stroke-width="10"/>
  </g>
</svg>
