<svg width="512" height="512" viewBox="0 0 512 512" fill="none" xmlns="http://www.w3.org/2000/svg">
  <!-- Hardcoded path for a 512x512 rounded rectangle with 112px radius -->
  <!-- This guarantees curved edges even if the SVG parser doesn't support the 'rx' attribute -->
  <path d="M 112 0 L 400 0 A 112 112 0 0 1 512 112 L 512 400 A 112 112 0 0 1 400 512 L 112 512 A 112 112 0 0 1 0 400 L 0 112 A 112 112 0 0 1 112 0 Z" fill="#ffffff" />

  <g stroke="#000000" stroke-width="24" fill="none" stroke-linecap="round" stroke-linejoin="round">
    <path d="M 256 120 Q 180 140 80 180 L 80 380 Q 180 400 256 420 Q 332 400 432 380 L 432 180 Q 332 140 256 120 Z" />
    <line x1="256" y1="120" x2="256" y2="420" />
  </g>
</svg>
